<?xml version="1.0" encoding="UTF-8"?>
<!--Generator: Apple Native CoreSVG 232.5-->
<!DOCTYPE svg
PUBLIC "-//W3C//DTD SVG 1.1//EN"
       "http://www.w3.org/Graphics/SVG/1.1/DTD/svg11.dtd">
<svg version="1.1" xmlns="http://www.w3.org/2000/svg" xmlns:xlink="http://www.w3.org/1999/xlink" width="3300" height="2200">
 <!--glyph: "", point size: 100.0, font version: "19.0d8e1", template writer version: "128"-->
 <style>.monochrome-0 {-sfsymbols-motion-group:1}
.monochrome-1 {opacity:0.0;-sfsymbols-clear-behind:true;-sfsymbols-motion-group:0;-sfsymbols-always-pulses:true}
.monochrome-2 {-sfsymbols-motion-group:0;-sfsymbols-always-pulses:true}
.monochrome-3 {opacity:0.0;-sfsymbols-clear-behind:true;-sfsymbols-motion-group:0}
.monochrome-4 {-sfsymbols-motion-group:0}

.multicolor-0:tintColor {-sfsymbols-motion-group:1}
.multicolor-1:tintColor {-sfsymbols-motion-group:0;-sfsymbols-always-pulses:true}
.multicolor-2:tintColor {-sfsymbols-motion-group:0;-sfsymbols-always-pulses:true}
.multicolor-3:tintColor {-sfsymbols-motion-group:0}
.multicolor-4:tintColor {-sfsymbols-motion-group:0}

.hierarchical-0:primary {-sfsymbols-motion-group:1}
.hierarchical-1:primary {opacity:0.0;-sfsymbols-clear-behind:true;-sfsymbols-motion-group:0}
.hierarchical-2:secondary {-sfsymbols-motion-group:0}
.hierarchical-3:primary {opacity:0.0;-sfsymbols-clear-behind:true;-sfsymbols-motion-group:0}
.hierarchical-4:secondary {-sfsymbols-motion-group:0}

.SFSymbolsPreviewWireframe {fill:none;opacity:1.0;stroke:black;stroke-width:0.5}
</style>
 <g id="Notes">
  <rect height="2200" id="artboard" style="fill:white;opacity:1" width="3300" x="0" y="0"/>
  <line style="fill:none;stroke:black;opacity:1;stroke-width:0.5;" x1="263" x2="3036" y1="292" y2="292"/>
  <text style="stroke:none;fill:black;font-family:sans-serif;font-size:13;font-weight:bold;" transform="matrix(1 0 0 1 263 322)">Weight/Scale Variations</text>
  <text style="stroke:none;fill:black;font-family:sans-serif;font-size:13;text-anchor:middle;" transform="matrix(1 0 0 1 559.711 322)">Ultralight</text>
  <text style="stroke:none;fill:black;font-family:sans-serif;font-size:13;text-anchor:middle;" transform="matrix(1 0 0 1 856.422 322)">Thin</text>
  <text style="stroke:none;fill:black;font-family:sans-serif;font-size:13;text-anchor:middle;" transform="matrix(1 0 0 1 1153.13 322)">Light</text>
  <text style="stroke:none;fill:black;font-family:sans-serif;font-size:13;text-anchor:middle;" transform="matrix(1 0 0 1 1449.84 322)">Regular</text>
  <text style="stroke:none;fill:black;font-family:sans-serif;font-size:13;text-anchor:middle;" transform="matrix(1 0 0 1 1746.56 322)">Medium</text>
  <text style="stroke:none;fill:black;font-family:sans-serif;font-size:13;text-anchor:middle;" transform="matrix(1 0 0 1 2043.27 322)">Semibold</text>
  <text style="stroke:none;fill:black;font-family:sans-serif;font-size:13;text-anchor:middle;" transform="matrix(1 0 0 1 2339.98 322)">Bold</text>
  <text style="stroke:none;fill:black;font-family:sans-serif;font-size:13;text-anchor:middle;" transform="matrix(1 0 0 1 2636.69 322)">Heavy</text>
  <text style="stroke:none;fill:black;font-family:sans-serif;font-size:13;text-anchor:middle;" transform="matrix(1 0 0 1 2933.4 322)">Black</text>
  <line style="fill:none;stroke:black;opacity:1;stroke-width:0.5;" x1="263" x2="3036" y1="1903" y2="1903"/>
  <g transform="matrix(0.2 0 0 0.2 263 1933)">
   <path d="m46.2402 4.15039c21.5332 0 39.4531-17.8711 39.4531-39.4043s-17.9688-39.4043-39.502-39.4043c-21.4844 0-39.3555 17.8711-39.3555 39.4043s17.9199 39.4043 39.4043 39.4043Zm0-7.42188c-17.7246 0-31.8848-14.209-31.8848-31.9824s14.1113-31.9824 31.8359-31.9824c17.7734 0 32.0312 14.209 32.0312 31.9824s-14.209 31.9824-31.9824 31.9824Zm-17.9688-31.9824c0 2.14844 1.51367 3.61328 3.75977 3.61328h10.498v10.5957c0 2.19727 1.46484 3.71094 3.61328 3.71094 2.24609 0 3.71094-1.51367 3.71094-3.71094v-10.5957h10.5957c2.19727 0 3.71094-1.46484 3.71094-3.61328 0-2.19727-1.51367-3.71094-3.71094-3.71094h-10.5957v-10.5469c0-2.24609-1.46484-3.75977-3.71094-3.75977-2.14844 0-3.61328 1.51367-3.61328 3.75977v10.5469h-10.498c-2.24609 0-3.75977 1.51367-3.75977 3.71094Z"/>
  </g>
  <g transform="matrix(0.2 0 0 0.2 281.506 1933)">
   <path d="m58.5449 14.5508c27.2461 0 49.8047-22.6074 49.8047-49.8047 0-27.2461-22.6074-49.8047-49.8535-49.8047-27.1973 0-49.7559 22.5586-49.7559 49.8047 0 27.1973 22.6074 49.8047 49.8047 49.8047Zm0-8.30078c-23.0469 0-41.4551-18.457-41.4551-41.5039s18.3594-41.5039 41.4062-41.5039 41.5527 18.457 41.5527 41.5039-18.457 41.5039-41.5039 41.5039Zm-22.6562-41.5039c0 2.39258 1.66016 4.00391 4.15039 4.00391h14.3555v14.4043c0 2.44141 1.66016 4.15039 4.05273 4.15039 2.44141 0 4.15039-1.66016 4.15039-4.15039v-14.4043h14.4043c2.44141 0 4.15039-1.61133 4.15039-4.00391 0-2.44141-1.70898-4.15039-4.15039-4.15039h-14.4043v-14.3555c0-2.49023-1.70898-4.19922-4.15039-4.19922-2.39258 0-4.05273 1.70898-4.05273 4.19922v14.3555h-14.3555c-2.49023 0-4.15039 1.70898-4.15039 4.15039Z"/>
  </g>
  <g transform="matrix(0.2 0 0 0.2 304.924 1933)">
   <path d="m74.8535 28.3203c34.8145 0 63.623-28.8086 63.623-63.5742 0-34.8145-28.8574-63.623-63.6719-63.623-34.7656 0-63.5254 28.8086-63.5254 63.623 0 34.7656 28.8086 63.5742 63.5742 63.5742Zm0-9.08203c-30.1758 0-54.4434-24.3164-54.4434-54.4922 0-30.2246 24.2188-54.4922 54.3945-54.4922 30.2246 0 54.541 24.2676 54.541 54.4922 0 30.1758-24.2676 54.4922-54.4922 54.4922Zm-28.8574-54.4922c0 2.58789 1.85547 4.39453 4.58984 4.39453h19.7266v19.7754c0 2.68555 1.85547 4.58984 4.44336 4.58984 2.68555 0 4.54102-1.85547 4.54102-4.58984v-19.7754h19.7754c2.68555 0 4.58984-1.80664 4.58984-4.39453 0-2.73438-1.85547-4.58984-4.58984-4.58984h-19.7754v-19.7266c0-2.73438-1.85547-4.63867-4.54102-4.63867-2.58789 0-4.44336 1.9043-4.44336 4.63867v19.7266h-19.7266c-2.73438 0-4.58984 1.85547-4.58984 4.58984Z"/>
  </g>
  <text style="stroke:none;fill:black;font-family:sans-serif;font-size:13;font-weight:bold;" transform="matrix(1 0 0 1 263 1953)">Design Variations</text>
  <text style="stroke:none;fill:black;font-family:sans-serif;font-size:13;" transform="matrix(1 0 0 1 263 1971)">Symbols are supported in up to nine weights and three scales.</text>
  <text style="stroke:none;fill:black;font-family:sans-serif;font-size:13;" transform="matrix(1 0 0 1 263 1989)">For optimal layout with text and other symbols, vertically align</text>
  <text style="stroke:none;fill:black;font-family:sans-serif;font-size:13;" transform="matrix(1 0 0 1 263 2007)">symbols with the adjacent text.</text>
  <line style="fill:none;stroke:#00AEEF;stroke-width:0.5;opacity:1.0;" x1="776" x2="776" y1="1919" y2="1933"/>
  <g transform="matrix(0.2 0 0 0.2 776 1933)">
   <path d="m16.5527 0.78125c2.58789 0 3.85742-0.976562 4.78516-3.71094l6.29883-17.2363h28.8086l6.29883 17.2363c0.927734 2.73438 2.19727 3.71094 4.73633 3.71094 2.58789 0 4.24805-1.5625 4.24805-4.00391 0-0.830078-0.146484-1.61133-0.537109-2.63672l-22.9004-60.9863c-1.12305-2.97852-3.125-4.49219-6.25-4.49219-3.02734 0-5.07812 1.46484-6.15234 4.44336l-22.9004 61.084c-0.390625 1.02539-0.537109 1.80664-0.537109 2.63672 0 2.44141 1.5625 3.95508 4.10156 3.95508Zm13.4766-28.3691 11.8652-32.8613h0.244141l11.8652 32.8613Z"/>
  </g>
  <line style="fill:none;stroke:#00AEEF;stroke-width:0.5;opacity:1.0;" x1="792.836" x2="792.836" y1="1919" y2="1933"/>
  <text style="stroke:none;fill:black;font-family:sans-serif;font-size:13;font-weight:bold;" transform="matrix(1 0 0 1 776 1953)">Margins</text>
  <text style="stroke:none;fill:black;font-family:sans-serif;font-size:13;" transform="matrix(1 0 0 1 776 1971)">Leading and trailing margins on the left and right side of each symbol</text>
  <text style="stroke:none;fill:black;font-family:sans-serif;font-size:13;" transform="matrix(1 0 0 1 776 1989)">can be adjusted by modifying the x-location of the margin guidelines.</text>
  <text style="stroke:none;fill:black;font-family:sans-serif;font-size:13;" transform="matrix(1 0 0 1 776 2007)">Modifications are automatically applied proportionally to all</text>
  <text style="stroke:none;fill:black;font-family:sans-serif;font-size:13;" transform="matrix(1 0 0 1 776 2025)">scales and weights.</text>
  <g transform="matrix(0.2 0 0 0.2 1289 1933)">
   <path d="m14.209 9.32617 8.49609 8.54492c4.29688 4.3457 9.22852 4.05273 13.8672-1.07422l53.4668-58.9355-4.83398-4.88281-53.0762 58.3984c-1.75781 2.00195-3.41797 2.49023-5.76172 0.146484l-5.85938-5.81055c-2.34375-2.29492-1.80664-4.00391 0.195312-5.81055l57.373-54.0039-4.88281-4.83398-57.959 54.4434c-4.93164 4.58984-5.32227 9.47266-1.02539 13.8184Zm32.0801-90.9668c-2.09961 2.05078-2.24609 4.93164-1.07422 6.88477 1.17188 1.80664 3.4668 2.97852 6.68945 2.14844 7.32422-1.70898 14.9414-2.00195 22.0703 2.68555l-2.92969 7.27539c-1.70898 4.15039-0.830078 7.08008 1.85547 9.81445l11.4746 11.5723c2.44141 2.44141 4.49219 2.53906 7.32422 2.05078l5.32227-0.976562 3.32031 3.36914-0.195312 2.7832c-0.195312 2.49023 0.439453 4.39453 2.88086 6.78711l3.80859 3.71094c2.39258 2.39258 5.46875 2.53906 7.8125 0.195312l14.5508-14.5996c2.34375-2.34375 2.24609-5.32227-0.146484-7.71484l-3.85742-3.80859c-2.39258-2.39258-4.24805-3.17383-6.64062-2.97852l-2.88086 0.244141-3.22266-3.17383 1.2207-5.61523c0.634766-2.83203-0.146484-5.0293-3.07617-7.95898l-10.9863-10.9375c-16.6992-16.6016-38.8672-16.2109-53.3203-1.75781Zm7.4707 1.85547c12.1582-8.88672 28.6133-7.37305 39.7461 3.75977l12.1582 12.0605c1.17188 1.17188 1.36719 2.09961 1.02539 3.80859l-1.61133 7.42188 7.51953 7.42188 4.93164-0.292969c1.26953-0.0488281 1.66016 0.0488281 2.63672 1.02539l2.88086 2.88086-12.207 12.207-2.88086-2.88086c-0.976562-0.976562-1.12305-1.36719-1.07422-2.68555l0.341797-4.88281-7.4707-7.42188-7.61719 1.26953c-1.61133 0.341797-2.34375 0.195312-3.56445-0.976562l-10.0098-10.0098c-1.26953-1.17188-1.41602-2.00195-0.634766-3.85742l4.39453-10.4492c-7.8125-7.27539-17.9688-10.4004-28.125-7.42188-0.78125 0.195312-1.07422-0.439453-0.439453-0.976562Z"/>
  </g>
  <text style="stroke:none;fill:black;font-family:sans-serif;font-size:13;font-weight:bold;" transform="matrix(1 0 0 1 1289 1953)">Exporting</text>
  <text style="stroke:none;fill:black;font-family:sans-serif;font-size:13;" transform="matrix(1 0 0 1 1289 1971)">Symbols should be outlined when exporting to ensure the</text>
  <text style="stroke:none;fill:black;font-family:sans-serif;font-size:13;" transform="matrix(1 0 0 1 1289 1989)">design is preserved when submitting to Xcode.</text>
  <text id="template-version" style="stroke:none;fill:black;font-family:sans-serif;font-size:13;text-anchor:end;" transform="matrix(1 0 0 1 3036 1933)">Template v.5.0</text>
  <text style="stroke:none;fill:black;font-family:sans-serif;font-size:13;text-anchor:end;" transform="matrix(1 0 0 1 3036 1951)">Requires Xcode 15 or greater</text>
  <text id="descriptive-name" style="stroke:none;fill:black;font-family:sans-serif;font-size:13;text-anchor:end;" transform="matrix(1 0 0 1 3036 1969)">Generated from wifi.paid</text>
  <text style="stroke:none;fill:black;font-family:sans-serif;font-size:13;text-anchor:end;" transform="matrix(1 0 0 1 3036 1987)">Typeset at 100.0 points</text>
  <text style="stroke:none;fill:black;font-family:sans-serif;font-size:13;" transform="matrix(1 0 0 1 263 726)">Small</text>
  <text style="stroke:none;fill:black;font-family:sans-serif;font-size:13;" transform="matrix(1 0 0 1 263 1156)">Medium</text>
  <text style="stroke:none;fill:black;font-family:sans-serif;font-size:13;" transform="matrix(1 0 0 1 263 1586)">Large</text>
 </g>
 <g id="Guides">
  <g id="H-reference" style="fill:#27AAE1;stroke:none;" transform="matrix(1 0 0 1 339 696)">
   <path d="M0.993654 0L3.63775 0L29.3281-67.1323L30.0303-67.1323L30.0303-70.459L28.1226-70.459ZM11.6885-24.4799L46.9815-24.4799L46.2315-26.7285L12.4385-26.7285ZM55.1196 0L57.7637 0L30.6382-70.459L29.4326-70.459L29.4326-67.1323Z"/>
  </g>
  <line id="Baseline-S" style="fill:none;stroke:#27AAE1;opacity:1;stroke-width:0.5;" x1="263" x2="3036" y1="696" y2="696"/>
  <line id="Capline-S" style="fill:none;stroke:#27AAE1;opacity:1;stroke-width:0.5;" x1="263" x2="3036" y1="625.541" y2="625.541"/>
  <g id="H-reference" style="fill:#27AAE1;stroke:none;" transform="matrix(1 0 0 1 339 1126)">
   <path d="M0.993654 0L3.63775 0L29.3281-67.1323L30.0303-67.1323L30.0303-70.459L28.1226-70.459ZM11.6885-24.4799L46.9815-24.4799L46.2315-26.7285L12.4385-26.7285ZM55.1196 0L57.7637 0L30.6382-70.459L29.4326-70.459L29.4326-67.1323Z"/>
  </g>
  <line id="Baseline-M" style="fill:none;stroke:#27AAE1;opacity:1;stroke-width:0.5;" x1="263" x2="3036" y1="1126" y2="1126"/>
  <line id="Capline-M" style="fill:none;stroke:#27AAE1;opacity:1;stroke-width:0.5;" x1="263" x2="3036" y1="1055.54" y2="1055.54"/>
  <g id="H-reference" style="fill:#27AAE1;stroke:none;" transform="matrix(1 0 0 1 339 1556)">
   <path d="M0.993654 0L3.63775 0L29.3281-67.1323L30.0303-67.1323L30.0303-70.459L28.1226-70.459ZM11.6885-24.4799L46.9815-24.4799L46.2315-26.7285L12.4385-26.7285ZM55.1196 0L57.7637 0L30.6382-70.459L29.4326-70.459L29.4326-67.1323Z"/>
  </g>
  <line id="Baseline-L" style="fill:none;stroke:#27AAE1;opacity:1;stroke-width:0.5;" x1="263" x2="3036" y1="1556" y2="1556"/>
  <line id="Capline-L" style="fill:none;stroke:#27AAE1;opacity:1;stroke-width:0.5;" x1="263" x2="3036" y1="1485.54" y2="1485.54"/>
  <line id="left-margin-Ultralight-S" style="fill:none;stroke:#00AEEF;stroke-width:0.5;opacity:1.0;" x1="510.591" x2="510.591" y1="600.785" y2="720.121"/>
  <line id="right-margin-Ultralight-S" style="fill:none;stroke:#FF3B30;stroke-width:0.5;opacity:1.0;" x1="608.831" x2="608.831" y1="600.785" y2="720.121"/>
  <line id="left-margin-Regular-S" style="fill:none;stroke:#00AEEF;stroke-width:0.5;opacity:1.0;" x1="1397.82" x2="1397.82" y1="600.785" y2="720.121"/>
  <line id="right-margin-Regular-S" style="fill:none;stroke:#00AEEF;stroke-width:0.5;opacity:1.0;" x1="1501.87" x2="1501.87" y1="600.785" y2="720.121"/>
  <line id="left-margin-Black-S" style="fill:none;stroke:#00AEEF;stroke-width:0.5;opacity:1.0;" x1="2881.23" x2="2881.23" y1="600.785" y2="720.121"/>
  <line id="right-margin-Black-S" style="fill:none;stroke:#FF3B30;stroke-width:0.5;opacity:1.0;" x1="2985.57" x2="2985.57" y1="600.785" y2="720.121"/>
 </g>
 <g id="Symbols">
  <g id="Black-S" transform="matrix(1 0 0 1 2881.23 696)">
   <path class="monochrome-0 multicolor-0:tintColor hierarchical-0:primary SFSymbolsPreviewWireframe" d="M51.2461-0.683594C52.5645-0.683594 53.7363-1.31836 55.4941-2.97852L65.2109-12.4023C66.334-13.4766 66.5293-15.2832 65.4551-16.5039C62.0371-20.752 56.6172-23.291 51.2461-23.291C45.7773-23.291 40.0645-20.6055 36.5488-15.918C35.8164-14.8438 36.2559-13.3789 37.2324-12.4023L46.998-2.97852C48.7559-1.31836 49.9277-0.683594 51.2461-0.683594ZM27.0273-23.5352C28.3945-22.2656 30.3477-22.3145 31.666-23.7305C36.793-28.8574 44.1172-31.8848 51.1973-31.8848C58.375-31.8848 65.8457-28.7598 70.9727-23.5352C72.1934-22.2168 74-22.3145 75.3672-23.5352L81.7637-29.4434C82.8867-30.5176 83.0332-32.0312 82.0078-33.1543C75.2207-40.9668 63.3555-45.8008 51.1973-45.8008C39.0391-45.8008 27.1738-40.9668 20.3867-33.1543C19.3613-32.0312 19.5078-30.5176 20.6309-29.4434L27.0273-23.5352ZM10.4746-39.209C11.7441-37.8906 13.7949-37.9395 15.0156-39.3066C24.7324-49.4629 37.1348-54.834 51.1973-54.834C65.3574-54.834 77.8086-49.4629 87.4766-39.209C88.6973-37.9883 90.6992-38.0371 91.9199-39.3066L97.6328-45.0684C98.7559-46.1914 98.8535-47.9004 97.8281-49.0234C87.6719-61.6211 69.3125-69.7266 51.1973-69.7266C33.082-69.7266 14.7227-61.6211 4.56645-49.0234C3.54106-47.9004 3.63871-46.1914 4.76176-45.0684L10.4746-39.209Z"/>
   <path class="monochrome-1 multicolor-1:tintColor hierarchical-1:primary SFSymbolsPreviewWireframe" d="M87.77-48C97.0221-48 104.77-55.748 104.77-65C104.77-74.3173 97.0871-82 87.77-82C78.42-82 70.77-74.3173 70.77-65C70.77-55.65 78.42-48 87.77-48Z"/>
   <path class="monochrome-2 multicolor-2:tintColor hierarchical-2:secondary SFSymbolsPreviewWireframe" d="M88.2868-51.6446C95.5806-51.6446 101.77-57.7749 101.77-65.1446C101.77-72.5478 95.6806-78.6446 88.2868-78.6446C80.8928-78.6446 74.77-72.5478 74.77-65.1446C74.77-57.7078 80.8928-51.6446 88.2868-51.6446Z"/>
   <path class="monochrome-3 multicolor-3:tintColor hierarchical-3:primary SFSymbolsPreviewWireframe" d="M83.079-69.1808C83.079-70.2913 83.489-71.2922 84.3092-72.1836C85.1293-73.0749 86.2786-73.5279 87.757-73.5425L87.757-75L88.8051-75L88.8051-73.5644C90.2689-73.4621 91.3924-73.0329 92.1758-72.2767C92.9591-71.5205 93.3692-70.5215 93.4059-69.2795L91.4752-69.2795C91.4237-69.8347 91.2729-70.3132 91.0228-70.7151C90.5594-71.453 89.8202-71.8402 88.8051-71.8767L88.8051-66.5507C90.5116-66.0758 91.6701-65.6301 92.2806-65.2137C93.2736-64.5269 93.77-63.5114 93.77-62.1671C93.77-60.2237 93.1338-58.8429 91.8613-58.0247C91.1552-57.5717 90.1365-57.2721 88.8051-57.126L88.8051-55L87.757-55L87.757-57.126C85.6166-57.2648 84.1639-58.0174 83.3989-59.3836C82.9797-60.1215 82.77-61.1187 82.77-62.3753L84.7229-62.3753C84.7817-61.3744 84.9399-60.6438 85.1973-60.1836C85.6534-59.358 86.4992-58.8941 87.7349-58.7918L87.7349-64.7644C86.1462-65.0639 84.973-65.5644 84.2154-66.2658C83.4578-66.9671 83.079-67.9388 83.079-69.1808Z"/>
   <path class="monochrome-2 monochrome-4 multicolor-2:tintColor multicolor-4:tintColor hierarchical-2:secondary hierarchical-4:secondary SFSymbolsPreviewWireframe" d="M88.77-59C90.0367-59.0507 90.9108-59.4468 91.3923-60.1882C91.6441-60.5684 91.77-61.0089 91.77-61.5095C91.77-62.3016 91.4293-62.9037 90.7478-63.3156C90.3552-63.5564 89.696-63.7845 88.77-64L88.77-59ZM84.77-69.4787C84.77-68.7766 85.0407-68.227 85.582-67.8298C86.1233-67.4326 86.8527-67.156 87.77-67L87.77-72C86.6874-71.9645 85.9167-71.6809 85.4581-71.1489C84.9994-70.617 84.77-70.0603 84.77-69.4787Z"/>
  </g>
  <g id="Regular-S" transform="matrix(1 0 0 1 1397.82 696)">
   <path class="monochrome-0 multicolor-0:tintColor hierarchical-0:primary SFSymbolsPreviewWireframe" d="M51.002-3.17383C51.9297-3.17383 52.6621-3.56445 54.2246-5.07812L63.6484-14.1113C64.2344-14.6973 64.3809-15.6738 63.8438-16.3574C61.2559-19.6777 56.5195-22.5586 51.002-22.5586C45.2891-22.5586 40.5527-19.5312 38.0137-16.0645C37.623-15.4785 37.8184-14.6973 38.4531-14.1113L47.7793-5.07812C49.3418-3.61328 50.123-3.17383 51.002-3.17383ZM28.5898-24.0234C29.4199-23.1445 30.543-23.291 31.373-24.1699C35.8652-29.248 43.2871-32.959 51.002-32.9102C58.8145-32.959 66.1875-29.1016 70.8262-24.0234C71.5586-23.1934 72.584-23.2422 73.4629-24.0723L79.5664-30.0781C80.2012-30.7129 80.25-31.6406 79.7129-32.373C73.8535-39.4531 63.1602-44.9219 51.002-44.9219C38.8438-44.9219 28.1504-39.4531 22.3398-32.373C21.7539-31.6406 21.7539-30.8105 22.4863-30.0781L28.5898-24.0234ZM12.7207-39.9902C13.4531-39.209 14.625-39.209 15.4062-40.0391C24.8301-50.0488 37.1836-55.2734 51.002-55.2734C64.918-55.2734 77.3203-50 86.7441-39.9902C87.4277-39.2578 88.5508-39.3066 89.332-40.0879L94.8008-45.5078C95.4844-46.2402 95.4355-47.1191 94.8984-47.8027C85.9141-58.9355 68.9707-67.2363 51.002-67.2363C33.082-67.2363 16.1387-58.9355 7.10547-47.8027C6.56836-47.1191 6.56836-46.2402 7.25195-45.5078L12.7207-39.9902Z"/>
   <path class="monochrome-1 multicolor-1:tintColor hierarchical-1:primary SFSymbolsPreviewWireframe" d="M86.18-47C95.4321-47 103.18-54.748 103.18-64C103.18-73.3173 95.497-81 86.18-81C76.83-81 69.18-73.3173 69.18-64C69.18-54.65 76.83-47 86.18-47Z"/>
   <path class="monochrome-2 multicolor-2:tintColor hierarchical-2:secondary SFSymbolsPreviewWireframe" d="M86.6968-50.6446C93.9905-50.6446 100.18-56.7749 100.18-64.1446C100.18-71.5478 94.0906-77.6446 86.6968-77.6446C79.3027-77.6446 73.18-71.5478 73.18-64.1446C73.18-56.7078 79.3027-50.6446 86.6968-50.6446Z"/>
   <path class="monochrome-3 multicolor-3:tintColor hierarchical-3:primary SFSymbolsPreviewWireframe" d="M81.4889-68.1808C81.4889-69.2913 81.899-70.2922 82.7191-71.1836C83.5392-72.0749 84.6885-72.5279 86.167-72.5425L86.167-74L87.2151-74L87.2151-72.5644C88.6788-72.4621 89.8024-72.0329 90.5857-71.2767C91.3691-70.5205 91.7791-69.5215 91.8159-68.2795L89.8851-68.2795C89.8336-68.8347 89.6828-69.3132 89.4328-69.7151C88.9694-70.453 88.2302-70.8402 87.2151-70.8767L87.2151-65.5507C88.9216-65.0758 90.08-64.6301 90.6905-64.2137C91.6835-63.5269 92.18-62.5114 92.18-61.1671C92.18-59.2237 91.5438-57.8429 90.2713-57.0247C89.5652-56.5717 88.5464-56.2721 87.2151-56.126L87.2151-54L86.167-54L86.167-56.126C84.0265-56.2648 82.5739-57.0174 81.8089-58.3836C81.3896-59.1215 81.18-60.1187 81.18-61.3753L83.1329-61.3753C83.1917-60.3744 83.3498-59.6438 83.6073-59.1836C84.0633-58.358 84.9092-57.8941 86.1449-57.7918L86.1449-63.7644C84.5561-64.0639 83.3829-64.5644 82.6253-65.2658C81.8677-65.9671 81.4889-66.9388 81.4889-68.1808Z"/>
   <path class="monochrome-2 monochrome-4 multicolor-2:tintColor multicolor-4:tintColor hierarchical-2:secondary hierarchical-4:secondary SFSymbolsPreviewWireframe" d="M87.18-58C88.4467-58.0507 89.3207-58.4468 89.8022-59.1882C90.0541-59.5684 90.18-60.0089 90.18-60.5095C90.18-61.3016 89.8393-61.9037 89.1578-62.3156C88.7652-62.5564 88.1059-62.7845 87.18-63L87.18-58ZM83.18-68.4787C83.18-67.7766 83.4507-67.227 83.992-66.8298C84.5333-66.4326 85.2626-66.156 86.18-66L86.18-71C85.0974-70.9645 84.3267-70.6809 83.868-70.1489C83.4093-69.617 83.18-69.0603 83.18-68.4787Z"/>
  </g>
  <g id="Ultralight-S" transform="matrix(1 0 0 1 510.591 696)">
   <path class="monochrome-0 multicolor-0:tintColor hierarchical-0:primary SFSymbolsPreviewWireframe" d="M48.0957-4.39989C48.6602-4.39989 49.211-4.74511 50.501-5.94091L59.4707-14.6108C59.9204-15.0151 60.0215-15.4922 59.5752-16.1304C57.4868-18.9058 52.8413-21.3325 48.0957-21.3325C43.3819-21.3325 38.6909-18.8955 36.606-16.1099C36.2153-15.4785 36.2744-15.0151 36.7276-14.6108L45.7359-5.94091C47.0259-4.74853 47.5347-4.39989 48.0957-4.39989ZM26.0923-25.3403C26.6499-24.7793 27.3643-24.7895 28.0127-25.4868C32.8228-30.6558 40.6079-34.185 48.0957-34.1362C55.5904-34.185 63.3721-30.6455 68.1924-25.4766C68.834-24.7827 69.5415-24.7861 70.148-25.3437L75.3433-30.4414C75.8418-30.9399 75.8907-31.5952 75.4444-32.146C69.9029-39.0444 59.1641-43.6958 48.0957-43.6958C37.0728-43.6958 26.3794-38.999 20.7959-32.146C20.3462-31.5952 20.3916-30.9468 20.897-30.4414L26.0923-25.3403ZM10.1323-41.3525C10.7285-40.7529 11.4917-40.7529 12.0913-41.4014C21.3789-51.1387 34.0049-56.4995 48.0957-56.4995C62.1934-56.4995 75.0498-51.3169 84.1104-41.3979C84.7031-40.7563 85.4629-40.7598 86.0625-41.3594L90.5777-45.8257C91.125-46.3765 91.1216-47.0737 90.6299-47.6665C81.7818-58.436 64.8838-66.0103 48.0957-66.0103C31.3565-66.0103 14.3677-58.4814 5.60695-47.6665C5.11525-47.0737 5.16066-46.3765 5.66261-45.8257L10.1323-41.3525Z"/>
   <path class="monochrome-1 multicolor-1:tintColor hierarchical-1:primary SFSymbolsPreviewWireframe" d="M81.409-45C90.6611-45 98.409-52.748 98.409-62C98.409-71.3173 90.726-79 81.409-79C72.059-79 64.409-71.3173 64.409-62C64.409-52.65 72.059-45 81.409-45Z"/>
   <path class="monochrome-2 multicolor-2:tintColor hierarchical-2:secondary SFSymbolsPreviewWireframe" d="M81.9258-48.6446C89.2195-48.6446 95.409-54.7749 95.409-62.1446C95.409-69.5478 89.3196-75.6446 81.9258-75.6446C74.5317-75.6446 68.409-69.5478 68.409-62.1446C68.409-54.7078 74.5317-48.6446 81.9258-48.6446Z"/>
   <path class="monochrome-3 multicolor-3:tintColor hierarchical-3:primary SFSymbolsPreviewWireframe" d="M76.7179-66.1808C76.7179-67.2913 77.128-68.2922 77.9481-69.1836C78.7682-70.0749 79.9175-70.5279 81.396-70.5425L81.396-72L82.4441-72L82.4441-70.5644C83.9078-70.4621 85.0314-70.0329 85.8147-69.2767C86.5981-68.5205 87.0081-67.5215 87.0449-66.2795L85.1141-66.2795C85.0626-66.8347 84.9118-67.3132 84.6618-67.7151C84.1984-68.453 83.4592-68.8402 82.4441-68.8767L82.4441-63.5507C84.1506-63.0758 85.309-62.6301 85.9195-62.2137C86.9125-61.5269 87.409-60.5114 87.409-59.1671C87.409-57.2237 86.7728-55.8429 85.5003-55.0247C84.7942-54.5717 83.7754-54.2721 82.4441-54.126L82.4441-52L81.396-52L81.396-54.126C79.2555-54.2648 77.8028-55.0174 77.0379-56.3836C76.6186-57.1215 76.409-58.1187 76.409-59.3753L78.3619-59.3753C78.4207-58.3744 78.5788-57.6438 78.8363-57.1836C79.2923-56.358 80.1382-55.8941 81.3739-55.7918L81.3739-61.7644C79.7851-62.0639 78.6119-62.5644 77.8543-63.2658C77.0967-63.9671 76.7179-64.9388 76.7179-66.1808Z"/>
   <path class="monochrome-2 monochrome-4 multicolor-2:tintColor multicolor-4:tintColor hierarchical-2:secondary hierarchical-4:secondary SFSymbolsPreviewWireframe" d="M82.409-56C83.6757-56.0507 84.5497-56.4468 85.0312-57.1882C85.2831-57.5684 85.409-58.0089 85.409-58.5095C85.409-59.3016 85.0683-59.9037 84.3868-60.3156C83.9942-60.5564 83.3349-60.7845 82.409-61L82.409-56ZM78.409-66.4787C78.409-65.7766 78.6797-65.227 79.221-64.8298C79.7623-64.4326 80.4916-64.156 81.409-64L81.409-69C80.3264-68.9645 79.5557-68.6809 79.097-68.1489C78.6383-67.617 78.409-67.0603 78.409-66.4787Z"/>
  </g>
 </g>
</svg>
